<?xml version="1.0" standalone="no"?>
<!DOCTYPE svg PUBLIC "-//W3C//DTD SVG 20010904//EN"
 "http://www.w3.org/TR/2001/REC-SVG-20010904/DTD/svg10.dtd">
<svg version="1.0" xmlns="http://www.w3.org/2000/svg"
 width="127.000000pt" height="72.000000pt" viewBox="0 0 127.000000 72.000000"
 preserveAspectRatio="xMidYMid meet">

<g transform="translate(0.000000,72.000000) scale(0.100000,-0.100000)"
fill="currentcolor" stroke="none">
<path d="M215 694 c-76 -19 -137 -59 -161 -107 -14 -25 -15 -44 -8 -101 14
-123 11 -226 -10 -286 -18 -54 -23 -120 -11 -140 3 -5 38 -10 76 -10 54 0 71
4 76 16 4 12 8 11 17 -8 10 -21 19 -23 96 -26 71 -2 87 0 97 14 7 10 13 21 13
26 0 17 -41 48 -65 48 -30 0 -30 0 -3 71 l22 58 79 3 c43 2 80 2 81 0 2 -1 -1
-22 -6 -45 -18 -85 -20 -124 -9 -146 11 -20 19 -22 84 -19 l72 3 0 29 c0 18
-7 33 -20 40 -11 6 -22 12 -24 13 -2 1 14 25 34 53 l38 51 28 -50 c15 -28 39
-65 53 -82 14 -17 26 -36 26 -44 0 -20 24 -25 115 -25 71 0 86 3 94 18 15 28
-9 65 -49 78 -54 17 -91 89 -88 172 2 35 7 67 13 72 14 12 146 6 227 -10 69
-14 71 -13 138 20 26 12 23 39 -9 82 -17 23 -31 47 -31 54 0 37 -140 114 -207
114 -24 0 -74 14 -120 32 -73 31 -85 33 -173 29 -143 -5 -254 -4 -365 2 -55 3
-109 4 -120 1z m171 -36 c18 -15 26 -17 22 -8 -5 13 12 15 108 15 71 0 109 -4
103 -9 -22 -23 -6 -23 27 -1 59 40 125 30 172 -25 12 -13 13 -12 8 8 -4 19 -1
22 12 17 70 -29 128 -45 164 -45 41 0 42 -1 18 -13 -14 -7 -26 -23 -28 -36 -4
-23 22 -61 41 -61 6 0 3 8 -6 18 -19 20 -22 48 -8 56 16 10 40 -5 50 -32 9
-27 9 -27 10 -3 1 14 -6 33 -16 43 -25 28 0 21 53 -14 26 -18 56 -49 67 -68
10 -19 27 -44 38 -56 33 -36 25 -54 -25 -54 -24 0 -46 -5 -48 -10 -5 -15 -108
8 -132 29 -10 9 -25 30 -33 46 l-14 30 4 -30 c2 -16 6 -37 8 -45 3 -12 -7 -15
-55 -15 -49 0 -60 3 -66 20 -4 11 -10 -19 -14 -78 -7 -95 -6 -99 22 -157 20
-39 26 -62 20 -68 -7 -7 3 -9 29 -5 29 4 44 1 57 -12 30 -31 14 -40 -75 -42
l-84 -2 -47 72 c-27 41 -48 78 -48 83 -1 5 -21 41 -46 79 -24 39 -53 88 -63
110 -16 32 -20 36 -20 17 -1 -13 6 -36 14 -53 l16 -29 -63 -30 c-49 -23 -77
-30 -126 -30 l-63 0 6 47 c3 27 1 62 -4 78 -8 27 -9 25 -10 -23 -1 -34 -13
-86 -37 -148 -19 -53 -33 -102 -30 -110 3 -8 18 -14 34 -14 32 0 58 -22 47
-40 -3 -5 -41 -10 -84 -10 -86 0 -91 4 -91 70 0 46 -30 143 -66 217 -24 48
-38 92 -41 132 -6 67 -23 83 -24 24 -1 -37 -1 -37 -10 -11 -16 43 5 101 52
142 48 41 90 54 180 55 54 1 71 -3 95 -21z m-227 -431 c13 -37 12 -40 -18 -71
l-32 -33 25 -17 c40 -26 31 -36 -34 -36 -50 0 -60 3 -62 18 -3 33 3 67 23 131
10 35 19 91 19 124 l0 61 33 -69 c19 -39 40 -87 46 -108z m496 53 c15 -30 15
-32 -25 -90 -56 -82 -57 -88 -23 -92 17 -2 29 -10 31 -21 3 -15 -5 -17 -58
-17 -55 0 -61 2 -70 25 -6 16 -6 34 1 53 6 15 14 49 18 77 6 47 9 51 51 72 58
28 57 28 75 -7z m-472 -182 c-2 -4 -12 0 -22 10 -16 16 -17 19 -2 36 15 17 16
17 22 -10 3 -16 4 -32 2 -36z"/>
</g>
</svg>
