<svg width="0" height="0" class="hidden">
  <symbol version="1.0" xmlns="http://www.w3.org/2000/svg" preserveAspectRatio="xMidYMid meet" viewBox="0 0 1920.000000 1080.000000" id="co2_reading">
    <g transform="translate(0.000000,1080.000000) scale(0.100000,-0.100000)" fill="green" stroke="none">
      <path d="M11467 10043 c-15 -16 -27 -32 -27 -36 0 -8 -71 -111 -145 -212 -24
        -33 -44 -65 -44 -72 -1 -15 -33 -33 -58 -33 -10 0 -31 7 -48 16 -16 9 -48 22
        -70 29 -22 7 -80 27 -130 44 -206 72 -285 93 -490 131 -33 6 -89 18 -125 25
        -36 8 -94 17 -130 20 -36 4 -112 14 -170 23 -149 23 -765 23 -925 -1 -60 -9
        -139 -19 -175 -22 -36 -4 -82 -11 -102 -16 -20 -5 -69 -16 -110 -24 -150 -29
        -184 -37 -230 -51 -26 -8 -66 -19 -90 -24 -101 -22 -239 -65 -305 -95 -17 -8
        -37 -15 -44 -15 -17 0 -204 -73 -294 -115 -240 -112 -483 -241 -590 -315 -22
        -15 -67 -45 -100 -66 -71 -45 -277 -196 -303 -221 -9 -10 -42 -38 -72 -63
        -154 -126 -324 -288 -493 -469 -73 -78 -243 -287 -279 -341 -9 -14 -39 -56
        -67 -95 -80 -110 -113 -159 -145 -216 -10 -19 -38 -63 -61 -99 -24 -36 -50
        -81 -59 -100 -9 -19 -26 -53 -39 -75 -71 -122 -106 -195 -209 -435 -11 -25
        -26 -57 -34 -72 -8 -14 -14 -31 -14 -38 0 -7 -7 -26 -14 -43 -8 -18 -31 -79
        -51 -137 -34 -99 -48 -144 -76 -250 -6 -25 -20 -74 -30 -109 -11 -35 -19 -76
        -19 -91 0 -14 -6 -49 -14 -76 -8 -27 -18 -76 -21 -109 -4 -33 -13 -82 -20
        -110 -12 -46 -21 -122 -45 -400 -12 -132 -12 -382 0 -525 21 -259 39 -440 45
        -449 3 -5 10 -47 16 -93 5 -46 14 -96 19 -113 6 -16 17 -66 25 -110 43 -218
        90 -399 126 -480 5 -11 22 -60 39 -110 45 -134 70 -201 114 -300 8 -16 24 -52
        36 -80 26 -59 59 -125 127 -255 70 -134 84 -157 121 -206 17 -25 32 -47 32
        -50 0 -7 51 -87 112 -177 72 -106 240 -311 272 -333 47 -32 109 -33 130 -2 32
        45 21 87 -48 181 -35 48 -70 93 -78 101 -7 7 -20 24 -28 36 -8 13 -24 35 -35
        49 -35 45 -65 90 -65 96 0 3 -8 18 -19 33 -15 22 -58 88 -139 217 -7 11 -19
        34 -28 50 -8 17 -26 48 -39 70 -46 77 -225 453 -225 472 0 7 -28 82 -55 148
        -7 17 -23 64 -35 105 -13 41 -27 86 -33 100 -13 34 -45 152 -60 225 -7 33 -16
        66 -20 73 -8 11 -25 107 -48 257 -5 39 -17 108 -24 155 -18 105 -23 161 -35
        425 -11 233 7 663 34 817 8 46 20 115 26 153 7 39 16 97 22 130 6 33 16 78 24
        100 7 22 16 60 20 85 4 25 12 56 19 70 7 14 16 43 20 65 4 22 11 45 15 50 5 6
        13 29 19 50 10 43 36 121 57 170 6 17 22 57 34 90 11 33 27 74 35 90 7 17 25
        57 40 90 68 152 197 399 249 475 40 59 52 79 72 114 9 15 38 59 65 97 27 38
        49 71 49 74 0 9 72 109 100 140 16 17 48 56 72 87 142 188 365 427 503 541 33
        27 83 70 110 96 60 57 270 223 304 241 14 7 56 35 95 63 38 27 88 59 111 71
        22 12 66 38 96 57 29 19 63 40 74 46 42 25 401 205 425 214 14 4 57 20 95 34
        39 14 111 39 160 55 50 17 98 35 108 40 10 6 37 15 60 20 40 8 96 23 212 55
        106 29 318 72 425 85 289 36 380 42 655 37 271 -4 576 -26 639 -47 17 -5 63
        -14 101 -19 76 -9 183 -33 256 -56 26 -8 55 -15 65 -15 18 0 120 -28 189 -52
        17 -6 52 -16 79 -24 26 -7 54 -18 61 -24 7 -6 32 -14 56 -18 63 -11 62 -32 -9
        -138 -33 -49 -74 -111 -92 -139 -19 -29 -33 -64 -34 -83 l-1 -32 565 -1 c311
        0 564 2 563 5 -2 3 -3 15 -3 25 0 11 -42 82 -94 159 -51 77 -96 146 -100 154
        -4 7 -17 30 -29 50 -12 20 -46 79 -76 130 -30 51 -69 116 -86 143 -42 64 -81
        132 -100 170 -8 17 -24 43 -37 58 l-23 28 -28 -28z"></path>
      <path d="M9985 8640 c-148 -4 -283 -10 -300 -13 -16 -4 -106 -11 -200 -17 -93
        -6 -186 -15 -205 -20 -19 -5 -69 -14 -110 -20 -41 -5 -104 -17 -140 -25 -36
        -8 -87 -19 -115 -25 -153 -34 -292 -74 -375 -109 -41 -17 -79 -31 -84 -31 -5
        0 -27 -9 -50 -19 -23 -11 -63 -29 -91 -41 -68 -30 -201 -97 -250 -126 -22 -13
        -53 -31 -70 -40 -16 -9 -48 -29 -70 -45 -22 -16 -65 -47 -95 -69 -30 -21 -62
        -45 -70 -52 -8 -7 -40 -32 -71 -55 -111 -81 -386 -370 -467 -489 -7 -11 -35
        -50 -62 -89 -78 -111 -189 -309 -241 -430 -17 -38 -37 -84 -45 -102 -8 -17
        -14 -38 -14 -46 0 -9 -4 -18 -8 -21 -14 -9 -102 -300 -102 -337 0 -14 -6 -48
        -14 -75 -14 -47 -29 -176 -46 -389 -9 -130 14 -436 44 -560 8 -33 20 -82 26
        -110 31 -137 38 -163 48 -181 5 -10 13 -38 17 -61 3 -22 13 -49 20 -60 8 -10
        15 -25 15 -33 0 -8 9 -32 20 -53 11 -20 20 -43 20 -49 1 -7 9 -31 20 -53 11
        -22 19 -46 20 -53 0 -6 9 -29 20 -49 11 -21 20 -43 20 -50 0 -14 36 -80 59
        -106 19 -23 17 -134 -4 -183 -7 -18 -17 -55 -20 -81 -4 -26 -13 -68 -21 -93
        -21 -68 -44 -194 -55 -295 -5 -49 -14 -110 -20 -135 -28 -115 -36 -528 -18
        -960 13 -333 10 -325 124 -325 78 0 80 1 89 28 7 19 4 64 -9 155 -26 175 -28
        897 -2 1032 9 47 19 121 23 165 4 44 11 91 16 105 6 14 14 54 19 88 5 35 15
        85 23 110 8 26 18 70 24 97 16 77 40 168 51 190 5 11 14 38 19 60 13 50 29 98
        53 153 11 23 19 50 19 58 0 9 7 28 15 42 8 15 26 56 40 92 14 36 32 79 40 95
        33 74 97 212 105 227 5 9 26 47 45 85 67 126 123 224 200 352 25 41 130 197
        136 201 3 3 13 19 22 35 9 17 46 68 83 115 37 47 111 139 163 205 139 175 479
        512 598 594 21 14 80 59 130 98 51 40 95 73 98 73 3 0 43 25 90 55 81 52 262
        148 356 189 24 11 55 24 69 31 14 6 66 23 115 39 50 16 104 35 120 42 17 7 42
        15 57 18 47 10 68 60 68 165 0 106 -8 112 -78 61 -41 -30 -224 -110 -251 -110
        -21 0 -271 -110 -321 -141 -8 -5 -26 -14 -40 -19 -14 -6 -43 -21 -65 -35 -22
        -13 -53 -31 -70 -39 -26 -14 -83 -52 -190 -126 -48 -33 -139 -99 -150 -107 -5
        -5 -30 -24 -54 -43 -25 -19 -52 -42 -61 -50 -9 -8 -50 -44 -91 -80 -41 -36
        -103 -92 -138 -125 -98 -93 -414 -437 -435 -474 -8 -13 -39 -53 -99 -126 -13
        -15 -144 -205 -162 -234 -77 -124 -129 -210 -168 -281 -17 -30 -43 -77 -59
        -105 -15 -27 -32 -61 -38 -75 -5 -14 -15 -32 -20 -40 -6 -8 -13 -22 -16 -30
        -14 -37 -57 -121 -64 -125 -4 -3 -11 -17 -15 -32 -3 -16 -12 -35 -19 -43 -6
        -8 -22 -42 -35 -75 -65 -173 -109 -267 -120 -261 -5 3 -11 24 -15 47 -4 23
        -13 51 -21 62 -8 12 -15 31 -15 42 0 11 -9 37 -20 58 -11 20 -20 45 -20 54 0
        10 -8 40 -19 68 -33 88 -43 119 -52 163 -5 24 -15 64 -23 90 -61 193 -82 638
        -40 867 8 44 19 107 24 140 12 78 38 182 56 223 8 18 14 40 14 50 1 9 9 35 20
        57 11 22 19 46 20 52 1 46 176 387 269 522 9 13 21 31 26 40 91 145 282 360
        432 484 82 68 275 207 288 207 6 0 17 6 23 12 14 14 119 73 202 113 186 90
        453 190 560 209 19 4 58 13 85 21 71 21 231 53 295 60 30 4 72 11 93 16 21 6
        111 14 200 19 89 5 212 14 272 19 164 14 847 24 864 12 16 -10 18 8 -30 -276
        -11 -66 -24 -138 -30 -160 -5 -22 -16 -76 -24 -120 -8 -44 -19 -96 -25 -115
        -5 -19 -10 -50 -10 -68 0 -18 -9 -72 -19 -120 -18 -84 -26 -128 -56 -309 -7
        -46 -18 -97 -24 -115 -5 -18 -14 -64 -20 -103 -6 -38 -15 -86 -21 -105 -5 -19
        -10 -48 -10 -65 0 -16 -9 -65 -19 -110 -10 -44 -24 -105 -30 -135 -34 -162
        -63 -277 -90 -355 -6 -16 -22 -64 -35 -105 -30 -89 -46 -131 -92 -228 -19 -40
        -34 -76 -34 -80 0 -8 -62 -131 -92 -182 -75 -128 -235 -360 -285 -414 -16 -17
        -58 -65 -94 -106 -105 -121 -262 -265 -378 -347 -25 -18 -77 -55 -116 -83 -38
        -27 -73 -50 -78 -50 -4 0 -29 -15 -55 -33 -44 -31 -161 -90 -262 -135 -25 -11
        -61 -27 -82 -36 -20 -9 -41 -16 -48 -16 -7 0 -26 -6 -43 -14 -60 -26 -233 -72
        -387 -103 -148 -29 -166 -32 -210 -33 -48 0 -115 -26 -143 -54 -10 -11 -17
        -33 -17 -56 0 -21 -5 -51 -11 -66 -12 -34 -4 -74 15 -74 8 0 27 6 43 14 34 17
        102 34 205 51 42 7 81 16 86 19 5 3 42 10 82 16 39 6 93 16 118 24 26 8 70 18
        97 24 113 23 176 40 187 50 7 5 28 13 46 17 18 4 45 13 60 21 15 8 31 14 35
        14 20 0 243 108 277 134 8 6 36 22 62 36 51 26 248 168 369 264 81 66 282 264
        369 365 62 72 130 162 130 171 0 4 19 31 43 62 41 54 88 127 114 178 7 14 24
        43 37 65 59 99 161 316 206 440 13 33 28 76 35 95 8 19 23 67 34 105 11 39 28
        95 37 125 22 74 43 162 55 235 6 33 17 83 24 110 8 28 17 75 20 105 4 30 11
        72 17 94 5 21 16 77 24 125 8 47 19 115 25 151 6 36 19 104 30 152 10 48 19
        102 19 121 0 19 6 52 14 73 7 22 17 69 20 104 4 36 13 88 21 115 7 28 15 78
        19 112 3 34 12 88 20 120 8 32 19 90 24 128 23 159 34 234 48 310 17 98 18
        197 2 213 -13 13 -392 14 -873 2z"></path>
      <path d="M12861 8393 c-19 -24 -20 -28 -6 -49 15 -23 82 -99 145 -164 54 -55
        206 -257 256 -340 16 -25 43 -63 61 -86 18 -23 33 -45 33 -49 0 -5 6 -16 14
        -24 7 -9 35 -56 62 -106 26 -49 58 -108 71 -130 12 -22 36 -69 53 -105 104
        -217 119 -252 160 -365 13 -33 28 -71 35 -85 7 -14 16 -41 20 -60 4 -19 11
        -40 15 -45 5 -6 14 -33 21 -60 6 -28 15 -54 20 -60 4 -5 10 -28 14 -50 3 -22
        12 -62 20 -90 65 -222 120 -514 136 -720 38 -504 7 -978 -88 -1345 -7 -30 -20
        -80 -28 -110 -8 -30 -23 -86 -34 -125 -11 -38 -28 -97 -37 -130 -9 -33 -20
        -64 -24 -70 -4 -5 -11 -25 -15 -44 -6 -29 -22 -72 -55 -146 -5 -11 -21 -51
        -35 -90 -29 -75 -44 -110 -108 -245 -58 -124 -117 -240 -144 -283 -13 -21 -28
        -49 -34 -63 -9 -25 -41 -78 -105 -173 -16 -24 -45 -67 -64 -96 -137 -207 -291
        -392 -515 -619 -87 -88 -264 -248 -328 -295 -37 -28 -78 -60 -90 -72 -12 -12
        -33 -28 -47 -37 -14 -9 -52 -37 -85 -62 -33 -25 -78 -57 -100 -72 -141 -90
        -258 -161 -295 -178 -14 -6 -43 -21 -65 -35 -22 -13 -47 -27 -55 -30 -8 -4
        -53 -25 -100 -47 -185 -87 -227 -106 -280 -128 -30 -12 -68 -28 -85 -36 -16
        -7 -46 -17 -65 -23 -19 -5 -66 -21 -105 -36 -38 -14 -92 -32 -120 -40 -27 -7
        -68 -18 -90 -25 -114 -33 -144 -40 -185 -45 -25 -3 -72 -12 -105 -20 -222 -52
        -450 -76 -780 -83 -243 -4 -490 10 -700 39 -38 6 -113 16 -167 24 -119 16
        -250 45 -430 94 -43 12 -86 21 -95 21 -10 0 -31 7 -47 15 -16 9 -46 20 -65 24
        -20 5 -49 14 -66 20 -16 6 -49 16 -72 21 -30 8 -43 16 -43 28 0 17 26 72 87
        182 43 78 84 183 75 192 -12 12 -1042 12 -1055 -1 -7 -7 -7 -14 0 -23 6 -7 32
        -53 58 -103 27 -49 51 -92 54 -95 4 -3 12 -16 19 -30 7 -14 21 -38 32 -55 11
        -16 27 -44 37 -62 10 -18 45 -78 78 -135 78 -134 123 -219 187 -350 44 -90 57
        -108 76 -108 13 0 25 8 29 18 6 15 111 207 133 242 6 8 15 26 21 40 5 13 13
        27 17 30 4 3 15 17 25 33 10 15 24 27 33 27 13 0 143 -39 239 -71 71 -24 259
        -74 340 -91 58 -12 203 -41 290 -58 33 -6 112 -18 175 -25 63 -8 147 -19 185
        -25 98 -17 836 -17 930 -1 39 7 120 18 180 26 129 16 206 30 294 56 35 11 74
        19 87 19 12 0 44 7 70 15 27 8 76 21 109 30 122 32 161 43 215 65 66 26 150
        56 206 75 23 7 50 18 60 24 30 17 155 72 194 86 74 26 471 241 527 285 14 11
        30 20 36 20 5 0 29 16 53 35 23 19 46 35 50 35 19 0 215 150 459 350 63 52
        313 299 368 364 23 27 76 89 117 137 41 48 94 114 118 146 23 32 55 73 70 90
        26 31 38 49 124 181 105 163 272 474 366 682 34 75 102 244 102 255 1 6 9 28
        20 50 11 22 19 47 20 55 0 8 8 37 19 65 31 82 42 118 52 160 5 22 15 63 23 90
        35 120 67 264 87 385 5 36 17 94 24 130 8 36 19 119 25 185 6 66 14 154 20
        195 12 96 12 436 0 560 -5 52 -14 147 -20 210 -6 63 -17 144 -25 180 -7 36
        -16 90 -19 120 -5 50 -21 128 -47 235 -6 22 -17 67 -24 100 -8 33 -23 90 -34
        128 -12 37 -29 95 -40 130 -10 34 -29 89 -40 122 -12 33 -28 78 -36 100 -14
        43 -38 101 -60 150 -16 37 -62 137 -104 227 -17 37 -31 69 -31 72 0 2 -23 44
        -51 93 -28 48 -55 97 -60 108 -5 11 -14 29 -21 40 -7 11 -22 36 -34 55 -114
        186 -301 444 -397 547 -88 94 -153 133 -221 133 -47 0 -57 -4 -75 -27z"></path>
            <path d="M9440 3850 c-144 -35 -216 -73 -297 -157 -100 -103 -173 -311 -173
        -494 0 -108 48 -312 93 -392 39 -70 103 -140 168 -182 99 -64 309 -83 503 -46
        124 24 141 38 139 115 -2 88 -30 126 -72 97 -15 -10 -54 -28 -88 -40 -55 -20
        -76 -23 -165 -19 -113 6 -154 21 -216 80 -100 97 -141 353 -93 583 30 147 68
        211 156 265 37 23 49 25 167 24 129 0 141 -3 253 -55 41 -19 65 -12 65 18 0 9
        8 37 17 64 l17 48 -29 31 c-20 20 -38 30 -59 30 -17 0 -59 7 -94 15 -77 18
        -245 27 -292 15z"></path>
            <path d="M10415 3835 c-78 -26 -112 -42 -170 -83 -43 -30 -141 -145 -151 -177
        -4 -11 -12 -27 -18 -35 -31 -40 -93 -322 -82 -375 3 -11 10 -56 16 -100 36
        -247 170 -425 367 -484 134 -40 348 -23 480 39 57 27 163 129 189 182 12 23
        31 62 43 86 11 23 21 53 21 66 0 13 7 43 16 67 24 69 22 291 -4 397 -25 98
        -50 171 -69 193 -7 8 -13 20 -13 26 0 16 -134 140 -172 159 -131 68 -321 84
        -453 39z m257 -146 c98 -21 156 -87 205 -233 20 -60 23 -88 23 -231 0 -134 -4
        -173 -21 -231 -11 -38 -24 -76 -30 -84 -5 -8 -13 -25 -19 -37 -5 -13 -24 -39
        -41 -58 -100 -109 -262 -124 -388 -37 -86 60 -136 171 -161 357 -14 101 18
        291 64 388 69 144 197 202 368 166z"></path>
            <path d="M11555 3856 c-5 -2 -46 -12 -90 -21 -44 -10 -90 -24 -102 -31 -12 -8
        -29 -14 -36 -14 -8 0 -27 -10 -42 -22 -24 -19 -27 -26 -22 -63 12 -88 43 -115
        92 -82 11 7 47 24 80 37 53 21 75 24 185 24 116 0 129 -2 168 -26 71 -42 92
        -80 92 -163 0 -77 -12 -109 -72 -193 -45 -63 -369 -386 -546 -543 -34 -30 -42
        -44 -47 -85 -10 -77 -2 -82 145 -88 211 -9 722 -8 731 1 12 12 15 125 3 145
        -8 15 -42 17 -277 23 -147 3 -279 10 -292 15 -23 9 -22 10 34 67 31 32 88 85
        126 118 128 111 310 299 358 371 38 56 50 86 59 138 22 135 -23 253 -123 321
        -79 53 -131 66 -279 71 -74 2 -139 2 -145 0z"></path>
    </g>
    </symbol>
    <symbol version="1.0" xmlns="http://www.w3.org/2000/svg" preserveAspectRatio="xMidYMid meet" viewBox="0 0 54.000000 54.000000" id="genset_icon">
        <g transform="translate(0.000000,54.000000) scale(0.100000,-0.100000)" fill="#000000" stroke="none">
        <path d="M69 273 c-13 -16 -12 -17 4 -4 9 7 17 15 17 17 0 8 -8 3 -21 -13z"></path>
        </g>
    </symbol>
    <symbol version="1.0" xmlns="http://www.w3.org/2000/svg" preserveAspectRatio="xMidYMid meet" viewBox="0 0 62.000000 70.000000" id="ripener_icon">
            <g transform="translate(0.000000,70.000000) scale(0.100000,-0.100000)" fill="red" stroke="none">
            <path d="M53 594 c6 -76 26 -105 75 -109 29 -2 30 -1 21 24 -6 14 -18 34 -26
        43 -9 10 -12 18 -7 18 5 0 19 -14 31 -32 l22 -31 7 28 c9 38 -3 54 -71 93
        l-58 32 6 -66z" fill="green"></path>
            <path fill="green" d="M330 547 c0 -8 22 -19 52 -26 108 -28 176 -127 165 -243 -21 -228
        -326 -279 -431 -71 -20 39 -20 43 -1 43 8 0 15 5 15 11 0 12 -39 79 -45 79 -6
        0 -45 -67 -45 -78 0 -5 9 -12 19 -15 11 -2 22 -17 25 -35 10 -44 73 -112 130
        -138 180 -84 383 57 363 252 -10 102 -84 190 -181 219 -61 18 -66 18 -66 2z"></path>
            <path fill="green" d="M225 533 c-28 -7 -45 -23 -45 -40 0 -13 3 -13 15 -3 17 14 21 0 4
        -17 -14 -14 3 -25 26 -17 17 7 35 43 35 70 0 15 -2 15 -35 7z"></path>
            <path fill="green" d="M310 382 l0 -88 -40 -39 c-28 -27 -37 -42 -29 -50 7 -7 24 4 55 37
        l44 47 0 90 c0 74 -3 91 -15 91 -12 0 -15 -16 -15 -88z"></path>
            <path fill="green" d="M426 421 c-12 -14 -14 -21 -6 -26 17 -10 47 22 34 35 -7 7 -16 4 -28
        -9z"></path>
            <path fill="green" d="M152 404 c-11 -7 -28 -11 -36 -8 -21 8 -66 -3 -66 -16 0 -6 47 -10
        116 -10 78 0 113 3 109 10 -4 6 -14 10 -23 8 -10 -1 -31 5 -48 15 -27 14 -33
        14 -52 1z"></path>
            <path  fill="green" d="M460 305 c0 -11 7 -15 23 -13 12 2 22 8 22 13 0 6 -10 11 -22 13 -16
        2 -23 -2 -23 -13z"></path>
            <path fill="green" d="M417 203 c-9 -9 12 -33 29 -33 17 0 18 12 2 28 -14 14 -22 15 -31 5z"></path>
            <path fill="green" d="M310 144 c0 -31 23 -28 28 4 2 15 -2 22 -12 22 -11 0 -16 -9 -16 -26z"></path>
            </g>
    </symbol>
    <symbol version="1.0" xmlns="http://www.w3.org/2000/svg" preserveAspectRatio="xMidYMid meet" viewBox="0 0 108.000000 88.000000" id="reefer_icon">
        <g transform="translate(0.000000,88.000000) scale(0.100000,-0.100000)" fill="#000000" stroke="none"></g>
    </symbol>
    <symbol version="1.0" xmlns="http://www.w3.org/2000/svg" preserveAspectRatio="xMidYMid meet" viewBox="0 0 100.000000 56.000000" id="contenedor">
        <g transform="translate(0.000000,56.000000) scale(0.100000,-0.100000)" fill="#000000" stroke="none">
        <path d="M7 533 c-4 -3 -7 -49 -7 -100 0 -85 2 -94 18 -91 14 3 17 16 20 81
    l3 77 84 0 85 0 0 -50 c0 -38 -4 -50 -15 -50 -8 0 -15 -7 -15 -15 0 -9 7 -18
    15 -21 12 -5 15 -25 15 -90 0 -68 -3 -84 -15 -84 -8 0 -15 -7 -15 -15 0 -8 7
    -15 15 -15 11 0 15 -12 15 -50 l0 -50 -85 0 -84 0 -3 78 c-2 60 -6 77 -18 77
    -12 0 -15 -17 -15 -95 l0 -95 495 0 495 0 3 197 2 198 -22 5 c-13 3 -139 30
    -282 60 l-258 55 -212 0 c-117 0 -216 -3 -219 -7z m413 -253 l0 -220 -85 0
    -85 0 0 45 c0 31 5 47 15 51 19 8 19 34 0 34 -12 0 -15 16 -15 84 0 65 3 85
    15 90 8 3 15 12 15 21 0 8 -7 15 -15 15 -11 0 -15 12 -15 50 l0 50 85 0 85 0
    0 -220z m281 165 c118 -25 224 -48 237 -52 22 -5 22 -7 22 -169 l0 -164 -250
    0 -250 0 0 215 c0 174 3 215 13 215 8 0 110 -20 228 -45z"></path>
        <path d="M530 255 c0 -140 2 -165 15 -165 13 0 15 25 15 165 0 140 -2 165 -15
    165 -13 0 -15 -25 -15 -165z"></path>
        <path d="M647 394 c-4 -4 -7 -74 -7 -156 0 -120 3 -148 14 -148 22 0 26 24 26
    154 0 83 -4 128 -13 140 -7 9 -16 14 -20 10z"></path>
        <path d="M750 230 c0 -113 3 -140 14 -140 22 0 26 23 26 140 0 117 -4 140 -26
    140 -11 0 -14 -27 -14 -140z"></path>
        <path d="M860 220 c0 -104 3 -130 14 -130 21 0 26 23 26 130 0 107 -5 130 -26
    130 -11 0 -14 -26 -14 -130z"></path>
        <path d="M4 289 c-10 -17 13 -36 27 -22 12 12 4 33 -11 33 -5 0 -12 -5 -16
    -11z"></path>
        </g>
    </symbol>
    <symbol version="1.0" xmlns="http://www.w3.org/2000/svg" preserveAspectRatio="xMidYMid meet" viewBox="0 0 262.000000 262.000000" id="two_settings_icon">
        <g transform="translate(0.000000,262.000000) scale(0.100000,-0.100000)" fill="#000000" stroke="none">
        <path d="M1150 2180 c-187 -28 -376 -144 -496 -303 -78 -104 -133 -234 -106
    -251 13 -8 26 10 47 68 21 55 79 148 132 212 78 92 226 184 358 220 153 41
    386 23 431 -34 19 -23 25 -25 50 -17 19 7 30 19 32 33 5 36 -15 52 -67 51 -25
    -1 -59 4 -75 10 -38 15 -235 22 -306 11z"></path>
        <path d="M1690 1984 c-6 -14 -10 -32 -10 -40 0 -27 -19 -51 -49 -64 -28 -11
    -33 -10 -71 20 l-42 33 -58 -58 -58 -57 30 -44 c27 -41 28 -46 17 -79 -11 -30
    -19 -35 -63 -45 -28 -6 -54 -16 -58 -23 -10 -16 -10 -118 0 -134 4 -7 30 -17
    58 -23 45 -10 52 -15 63 -46 12 -33 11 -38 -13 -73 -14 -20 -26 -41 -26 -47 0
    -5 24 -33 53 -62 l53 -53 43 32 44 31 35 -19 c31 -16 38 -26 47 -68 l10 -50
    74 0 c81 0 86 3 96 68 5 31 12 40 41 52 35 14 37 14 80 -16 l44 -30 58 55 57
    55 -32 45 c-31 44 -32 47 -18 80 15 36 23 40 88 52 l38 6 -3 76 c-3 82 0 79
    -80 96 -20 5 -32 17 -43 42 -15 35 -14 37 15 74 17 21 30 42 30 47 0 13 -94
    103 -108 103 -7 0 -30 -11 -51 -25 -36 -24 -39 -25 -73 -11 -38 16 -48 32 -48
    75 0 42 -17 51 -92 51 -64 0 -69 -2 -78 -26z m130 -33 c5 -11 10 -31 10 -45 0
    -28 22 -46 82 -67 34 -12 40 -11 76 14 l39 26 32 -33 31 -32 -25 -36 c-30 -45
    -30 -41 -4 -104 20 -48 24 -52 68 -60 l46 -9 0 -44 0 -45 -48 -10 c-51 -11
    -55 -17 -84 -109 -3 -10 6 -32 22 -53 l27 -36 -28 -29 c-34 -35 -40 -36 -83
    -6 l-34 23 -56 -22 c-43 -18 -57 -28 -59 -46 -8 -68 -9 -69 -60 -66 -38 2 -47
    7 -50 23 -9 60 -13 66 -68 90 l-56 25 -32 -25 c-41 -32 -46 -31 -80 4 l-28 29
    26 40 25 41 -24 54 c-25 57 -38 67 -86 67 -28 0 -29 1 -29 49 l0 50 46 7 c44
    6 46 9 70 62 l24 55 -25 37 c-32 46 -31 53 6 84 l30 26 35 -27 35 -26 52 18
    c59 20 77 38 77 75 0 35 17 50 57 50 22 0 36 -6 43 -19z"></path>
        <path d="M1685 1708 c-78 -45 -107 -154 -62 -233 33 -58 88 -87 160 -82 98 6
    157 69 157 167 0 98 -59 161 -157 167 -47 3 -66 -1 -98 -19z m177 -54 c58 -57
    58 -132 -1 -188 -80 -77 -221 -17 -221 92 0 62 33 105 97 127 45 16 86 5 125
    -31z"></path>
        <path d="M834 1612 c-6 -4 -15 -34 -20 -66 -9 -59 -9 -60 -56 -79 l-48 -19
    -48 31 c-27 17 -55 31 -62 31 -14 0 -106 -85 -121 -113 -8 -14 -2 -29 27 -68
    l36 -50 -19 -47 c-19 -46 -21 -47 -84 -62 l-64 -16 -3 -85 c-3 -100 0 -105 77
    -116 51 -8 53 -10 73 -56 l21 -48 -38 -55 -38 -55 66 -67 c52 -51 70 -65 82
    -57 7 6 31 22 52 37 l39 28 49 -19 c47 -18 50 -22 58 -62 17 -98 7 -89 105
    -89 98 0 112 7 112 56 0 57 15 79 64 98 l46 18 49 -36 c27 -20 53 -36 58 -36
    6 0 38 29 72 65 l63 65 -36 50 c-20 28 -36 54 -36 59 0 5 9 29 19 54 18 42 21
    44 71 50 77 9 81 16 78 116 l-3 86 -67 14 c-38 8 -68 18 -68 23 0 5 -8 26 -19
    48 l-18 39 27 33 c56 68 56 68 -13 136 -35 34 -68 62 -75 62 -8 0 -33 -13 -57
    -30 -51 -35 -48 -35 -102 -13 -43 18 -53 38 -53 104 0 18 -7 32 -19 39 -22 11
    -160 14 -177 2z m161 -89 c4 -27 8 -53 10 -59 1 -5 32 -23 69 -38 l65 -28 53
    36 53 35 38 -36 c20 -21 37 -45 37 -54 0 -9 -13 -33 -30 -54 -35 -45 -35 -43
    -11 -97 11 -24 22 -51 25 -61 6 -20 14 -23 79 -32 l47 -6 0 -64 c0 -70 10 -62
    -88 -80 -24 -5 -33 -16 -56 -75 l-27 -69 31 -42 c16 -23 30 -47 30 -53 0 -7
    -18 -29 -40 -51 l-39 -38 -51 35 -51 36 -57 -25 c-78 -35 -79 -36 -87 -98 l-6
    -55 -64 0 c-63 0 -63 0 -69 30 -3 17 -9 44 -12 61 -5 24 -14 34 -42 45 -21 8
    -50 22 -65 30 -27 15 -29 14 -79 -21 l-51 -37 -43 44 -44 43 35 52 c33 49 34
    53 20 80 -8 15 -21 45 -29 65 -13 34 -18 37 -75 49 l-61 12 0 58 c0 32 4 61
    10 64 5 3 33 9 61 12 48 6 52 9 65 42 8 20 21 49 30 65 15 28 14 31 -22 83
    l-37 54 44 45 45 45 46 -36 c26 -19 50 -35 55 -35 4 0 36 12 69 26 l62 26 11
    59 12 59 64 0 64 0 6 -47z"></path>
        <path d="M870 1281 c-175 -53 -228 -256 -99 -378 185 -175 464 41 348 269 -42
    83 -162 135 -249 109z m138 -55 c58 -30 102 -104 102 -168 0 -18 -13 -55 -28
    -83 -45 -83 -141 -116 -229 -80 -48 20 -71 41 -94 87 -38 75 -20 158 50 221
    39 35 45 37 107 37 36 0 77 -6 92 -14z"></path>
        <path d="M2215 1088 c-2 -7 -13 -47 -26 -88 -29 -98 -60 -159 -126 -247 -86
    -115 -243 -219 -389 -258 -132 -36 -372 -27 -394 15 -22 41 -90 22 -90 -24 0
    -36 25 -52 62 -38 22 8 37 8 56 0 16 -7 90 -11 177 -11 144 0 154 1 240 32
    211 76 354 201 450 391 40 80 79 205 71 227 -7 16 -25 17 -31 1z"></path>
        </g>
  </symbol>
  <symbol version="1.0" xmlns="http://www.w3.org/2000/svg" preserveAspectRatio="xMidYMid meet" viewBox="0 0 90.000000 90.000000" id="temp_supply_1">
    <g transform="translate(0.000000,66.000000) scale(0.100000,-0.100000)" fill="#000000" stroke="none">
      <path d="M432 543 c-23 -20 -41 -73 -24 -73 5 0 15 13 22 30 21 50 86 53 108 5 14 -29 2 -69 -23 -79 -9 -3 -104 -6 -211 -6 -123 0 -194 -4 -194 -10 0 -13 395 -13 420 0 25 13 41 65 30 94 -19 52 -88 72 -128 39z"></path>
      <path d="M635 465 c-24 -23 -36 -73 -15 -60 6 3 10 12 10 19 0 19 34 46 58 46 51 0 81 -70 44 -103 -16 -15 -50 -17 -268 -17 -143 0 -255 -4 -264 -10 -10 -6 78 -10 257 -10 l272 0 20 26 c29 37 26 70 -8 105 -36 36 -73 37 -106 4z"></path>
      <path d="M155 250 c4 -6 85 -10 211 -10 191 0 205 -1 224 -20 25 -25 25 -55 0 -80 -36 -36 -82 -21 -105 35 -8 19 -9 18 -13 -5 -8 -49 76 -90 119 -57 27 20 41 56 34 88 -12 55 -28 59 -263 59 -140 0 -211 -3 -207 -10z"></path>
    </g>
  </symbol>
  <symbol version="1.0" xmlns="http://www.w3.org/2000/svg" preserveAspectRatio="xMidYMid meet" viewBox="0 0 74.000000 74.000000" id="relative_humidity">
    <g transform="translate(0.000000,74.000000) scale(0.100000,-0.100000)" fill="#0070fc" stroke="none">
      <path d="M270 635 c-61 -20 -116 -67 -146 -128 -23 -44 -26 -60 -22 -127 4
                                -96 38 -159 112 -204 54 -34 156 -48 195 -27 26 15 30 57 4 46 -68 -26 -146
                                -11 -203 41 -134 121 -61 347 116 362 116 10 203 -58 229 -178 9 -40 29 -73
                                38 -63 14 13 6 90 -14 133 -55 123 -187 185 -309 145z"></path>
      <path d="M315 551 c-17 -4 -43 -16 -58 -25 -55 -37 -92 -133 -64 -170 19 -26
                                37 -12 37 30 0 84 57 130 146 119 l53 -6 -33 -30 c-19 -16 -41 -29 -50 -29
                                -26 0 -50 -45 -36 -69 19 -36 80 -22 80 18 0 9 23 39 52 68 40 40 49 56 41 64
                                -9 9 -16 9 -28 -1 -10 -8 -15 -9 -15 -2 0 25 -76 45 -125 33z"></path>
      <path d="M460 465 c-6 -8 -8 -20 -4 -27 5 -7 11 -31 14 -53 3 -27 10 -40 20
                                -40 21 0 25 67 5 104 -18 36 -18 36 -35 16z"></path>
      <path d="M516 308 c-65 -103 -69 -122 -36 -175 54 -89 194 -21 161 79 -11 33
                                -78 148 -87 148 -2 0 -19 -24 -38 -52z m81 -106 c7 -31 -7 -56 -36 -60 -51 -8
                                -68 53 -29 103 l22 28 18 -23 c10 -12 21 -34 25 -48z"></path>
      <path d="M530 210 c0 -12 35 -31 44 -23 3 3 -2 12 -12 19 -20 16 -32 17 -32 4z"></path>
    </g>
  </symbol>
  
  <symbol version="1.0" xmlns="http://www.w3.org/2000/svg" preserveAspectRatio="xMidYMid meet" viewBox="0 0 64.000000 64.000000" id="ripener_prueba">
    <g transform="translate(0.000000,64.000000) scale(0.100000,-0.100000)" fill="#000000" stroke="none">
      <path d="M275 579 c-40 -12 -58 -28 -84 -69 -38 -62 -21 -148 38 -191 46 -34
                                41 -53 -11 -45 -49 7 -48 7 -145 0 l-73 -6 0 -99 0 -99 68 -1 c112 0 422 -1
                                500 0 l72 1 0 99 0 99 -72 6 c-98 7 -97 7 -145 0 -52 -7 -58 11 -15 43 34 25
                                62 79 62 119 0 41 -35 107 -67 126 -37 22 -91 29 -128 17z m130 -52 c45 -45
                                53 -92 26 -145 -52 -102 -193 -93 -230 14 -18 52 -9 88 34 131 29 29 39 33 85
                                33 46 0 56 -4 85 -33z m-45 -247 c0 -5 -18 -10 -40 -10 -22 0 -40 5 -40 10 0
                                6 18 10 40 10 22 0 40 -4 40 -10z m-190 -110 c0 -53 -4 -90 -10 -90 -6 0 -10
                                37 -10 90 0 53 4 90 10 90 6 0 10 -37 10 -90z m324 41 c7 -55 -2 -131 -15
                                -131 -5 0 -9 11 -9 24 0 14 -4 28 -10 31 -5 3 -10 -3 -10 -14 0 -20 -5 -21
                                -130 -21 l-130 0 0 70 0 70 130 0 c123 0 130 -1 130 -20 0 -11 5 -20 10 -20 6
                                0 10 14 10 30 0 48 17 35 24 -19z m-364 -41 l0 -70 -55 0 -55 0 0 70 0 70 55
                                0 55 0 0 -70z m490 0 l0 -70 -55 0 -55 0 0 70 0 70 55 0 55 0 0 -70z"></path>
      <path d="M274 531 c-18 -11 -39 -30 -48 -42 -18 -26 -21 -59 -6 -59 6 0 10 7
                                10 16 0 27 56 74 88 74 36 0 78 -31 86 -65 4 -14 11 -25 17 -25 15 0 2 50 -19
                                74 -19 21 -65 46 -84 46 -7 0 -27 -9 -44 -19z"></path>
      <path d="M309 493 c0 -4 0 -27 1 -50 1 -27 -3 -43 -10 -43 -6 0 -10 -12 -8
                                -27 2 -22 8 -28 28 -28 20 0 26 6 28 28 2 15 -2 27 -8 27 -7 0 -10 17 -9 47 2
                                30 -1 48 -9 51 -7 2 -12 0 -13 -5z m21 -123 c0 -5 -4 -10 -10 -10 -5 0 -10 5
                                -10 10 0 6 5 10 10 10 6 0 10 -4 10 -10z"></path>
    </g>
  </symbol>
  <symbol version="1.0" xmlns="http://www.w3.org/2000/svg" preserveAspectRatio="xMidYMid meet" viewBox="0 0 93.000000 76.000000" id="aperture">
    <g transform="translate(0.000000,76.000000) scale(0.100000,-0.100000)" fill="#000000" stroke="none">
      <path d="M287 654 c-4 -4 -7 -45 -7 -91 0 -76 2 -83 20 -83 17 0 20 7 20 53 0
                                78 7 83 128 79 l102 -3 0 -222 0 -222 -102 3 c-57 2 -109 5 -115 7 -7 2 -13
                                18 -13 35 0 23 -4 30 -20 30 -18 0 -20 -7 -20 -54 0 -30 5 -58 11 -61 5 -4 75
                                -9 154 -12 l144 -5 6 23 c3 13 4 137 3 274 l-3 250 -151 3 c-82 1 -153 -1
                                -157 -4z"></path>
      <path d="M103 527 c-29 -12 -53 -26 -53 -30 0 -5 19 -36 42 -69 l42 -60 12 34
                                c6 18 17 32 25 31 8 -1 44 -7 80 -14 60 -11 73 -11 140 9 41 12 90 23 109 24
                                27 2 35 7 35 23 0 17 -6 20 -43 18 -24 -1 -67 -10 -95 -19 -62 -21 -140 -21
                                -190 -1 -34 15 -35 17 -27 46 11 38 -1 39 -77 8z"></path>
      <path d="M620 471 c0 -12 11 -23 31 -30 41 -14 39 -14 39 9 0 13 -10 24 -26
                                30 -36 14 -44 13 -44 -9z"></path>
      <path d="M280 355 c0 -28 4 -35 20 -35 16 0 20 7 20 35 0 28 -4 35 -20 35 -16
                                0 -20 -7 -20 -35z"></path>
      <path d="M734 344 c-10 -43 -10 -43 -64 -23 l-50 19 0 -23 c0 -18 9 -26 43
                                -39 35 -13 42 -19 42 -42 -1 -14 3 -26 7 -26 13 0 108 50 108 56 0 5 -47 69
                                -71 98 -4 5 -11 -4 -15 -20z"></path>
      <path d="M388 317 c-78 -22 -105 -21 -205 9 -19 5 -23 2 -23 -14 0 -15 12 -24
                                47 -36 59 -20 125 -20 192 0 29 8 72 19 95 22 26 5 41 13 41 22 0 23 -59 21
                                -147 -3z"></path>
    </g>
  </symbol>
  <symbol version="1.0" xmlns="http://www.w3.org/2000/svg" preserveAspectRatio="xMidYMid meet" viewBox="0 0 262.000000 262.000000" id="c_mode">
    <g transform="translate(0.000000,262.000000) scale(0.100000,-0.100000)" fill="#000000" stroke="none">
      <path d="M1150 2180 c-187 -28 -376 -144 -496 -303 -78 -104 -133 -234 -106 -251 13 -8 26 10 47 68 21 55 79 148 132 212 78 92 226 184 358 220 153 41 386 23 431 -34 19 -23 25 -25 50 -17 19 7 30 19 32 33 5 36 -15 52 -67 51 -25
                            -1 -59 4 -75 10 -38 15 -235 22 -306 11z"></path>
      <path d="M1690 1984 c-6 -14 -10 -32 -10 -40 0 -27 -19 -51 -49 -64 -28 -11 -33 -10 -71 20 l-42 33 -58 -58 -58 -57 30 -44 c27 -41 28 -46 17 -79 -11 -30
                            -19 -35 -63 -45 -28 -6 -54 -16 -58 -23 -10 -16 -10 -118 0 -134 4 -7 30 -17 58 -23 45 -10 52 -15 63 -46 12 -33 11 -38 -13 -73 -14 -20 -26 -41 -26 -47 0
                            -5 24 -33 53 -62 l53 -53 43 32 44 31 35 -19 c31 -16 38 -26 47 -68 l10 -50
                            74 0 c81 0 86 3 96 68 5 31 12 40 41 52 35 14 37 14 80 -16 l44 -30 58 55 57
                            55 -32 45 c-31 44 -32 47 -18 80 15 36 23 40 88 52 l38 6 -3 76 c-3 82 0 79
                            -80 96 -20 5 -32 17 -43 42 -15 35 -14 37 15 74 17 21 30 42 30 47 0 13 -94
                            103 -108 103 -7 0 -30 -11 -51 -25 -36 -24 -39 -25 -73 -11 -38 16 -48 32 -48
                            75 0 42 -17 51 -92 51 -64 0 -69 -2 -78 -26z m130 -33 c5 -11 10 -31 10 -45 0
                            -28 22 -46 82 -67 34 -12 40 -11 76 14 l39 26 32 -33 31 -32 -25 -36 c-30 -45
                            -30 -41 -4 -104 20 -48 24 -52 68 -60 l46 -9 0 -44 0 -45 -48 -10 c-51 -11
                            -55 -17 -84 -109 -3 -10 6 -32 22 -53 l27 -36 -28 -29 c-34 -35 -40 -36 -83
                            -6 l-34 23 -56 -22 c-43 -18 -57 -28 -59 -46 -8 -68 -9 -69 -60 -66 -38 2 -47
                            7 -50 23 -9 60 -13 66 -68 90 l-56 25 -32 -25 c-41 -32 -46 -31 -80 4 l-28 29
                            26 40 25 41 -24 54 c-25 57 -38 67 -86 67 -28 0 -29 1 -29 49 l0 50 46 7 c44
                            6 46 9 70 62 l24 55 -25 37 c-32 46 -31 53 6 84 l30 26 35 -27 35 -26 52 18
                            c59 20 77 38 77 75 0 35 17 50 57 50 22 0 36 -6 43 -19z"></path>
      <path d="M1685 1708 c-78 -45 -107 -154 -62 -233 33 -58 88 -87 160 -82 98 6
                            157 69 157 167 0 98 -59 161 -157 167 -47 3 -66 -1 -98 -19z m177 -54 c58 -57
                            58 -132 -1 -188 -80 -77 -221 -17 -221 92 0 62 33 105 97 127 45 16 86 5 125
                            -31z"></path>
      <path d="M834 1612 c-6 -4 -15 -34 -20 -66 -9 -59 -9 -60 -56 -79 l-48 -19
                            -48 31 c-27 17 -55 31 -62 31 -14 0 -106 -85 -121 -113 -8 -14 -2 -29 27 -68
                            l36 -50 -19 -47 c-19 -46 -21 -47 -84 -62 l-64 -16 -3 -85 c-3 -100 0 -105 77
                            -116 51 -8 53 -10 73 -56 l21 -48 -38 -55 -38 -55 66 -67 c52 -51 70 -65 82
                            -57 7 6 31 22 52 37 l39 28 49 -19 c47 -18 50 -22 58 -62 17 -98 7 -89 105
                            -89 98 0 112 7 112 56 0 57 15 79 64 98 l46 18 49 -36 c27 -20 53 -36 58 -36
                            6 0 38 29 72 65 l63 65 -36 50 c-20 28 -36 54 -36 59 0 5 9 29 19 54 18 42 21
                            44 71 50 77 9 81 16 78 116 l-3 86 -67 14 c-38 8 -68 18 -68 23 0 5 -8 26 -19
                            48 l-18 39 27 33 c56 68 56 68 -13 136 -35 34 -68 62 -75 62 -8 0 -33 -13 -57
                            -30 -51 -35 -48 -35 -102 -13 -43 18 -53 38 -53 104 0 18 -7 32 -19 39 -22 11
                            -160 14 -177 2z m161 -89 c4 -27 8 -53 10 -59 1 -5 32 -23 69 -38 l65 -28 53
                            36 53 35 38 -36 c20 -21 37 -45 37 -54 0 -9 -13 -33 -30 -54 -35 -45 -35 -43
                            -11 -97 11 -24 22 -51 25 -61 6 -20 14 -23 79 -32 l47 -6 0 -64 c0 -70 10 -62
                            -88 -80 -24 -5 -33 -16 -56 -75 l-27 -69 31 -42 c16 -23 30 -47 30 -53 0 -7
                            -18 -29 -40 -51 l-39 -38 -51 35 -51 36 -57 -25 c-78 -35 -79 -36 -87 -98 l-6
                            -55 -64 0 c-63 0 -63 0 -69 30 -3 17 -9 44 -12 61 -5 24 -14 34 -42 45 -21 8
                            -50 22 -65 30 -27 15 -29 14 -79 -21 l-51 -37 -43 44 -44 43 35 52 c33 49 34
                            53 20 80 -8 15 -21 45 -29 65 -13 34 -18 37 -75 49 l-61 12 0 58 c0 32 4 61
                            10 64 5 3 33 9 61 12 48 6 52 9 65 42 8 20 21 49 30 65 15 28 14 31 -22 83
                            l-37 54 44 45 45 45 46 -36 c26 -19 50 -35 55 -35 4 0 36 12 69 26 l62 26 11
                            59 12 59 64 0 64 0 6 -47z"></path>
      <path d="M870 1281 c-175 -53 -228 -256 -99 -378 185 -175 464 41 348 269 -42
                            83 -162 135 -249 109z m138 -55 c58 -30 102 -104 102 -168 0 -18 -13 -55 -28
                            -83 -45 -83 -141 -116 -229 -80 -48 20 -71 41 -94 87 -38 75 -20 158 50 221
                            39 35 45 37 107 37 36 0 77 -6 92 -14z"></path>
      <path d="M2215 1088 c-2 -7 -13 -47 -26 -88 -29 -98 -60 -159 -126 -247 -86
                            -115 -243 -219 -389 -258 -132 -36 -372 -27 -394 15 -22 41 -90 22 -90 -24 0
                            -36 25 -52 62 -38 22 8 37 8 56 0 16 -7 90 -11 177 -11 144 0 154 1 240 32
                            211 76 354 201 450 391 40 80 79 205 71 227 -7 16 -25 17 -31 1z"></path>
    </g>
  </symbol>
  <symbol version="1.0" xmlns="http://www.w3.org/2000/svg" preserveAspectRatio="xMidYMid meet" viewBox="0 0 492.000000 282.000000" id="compress_coil_1">
    <g transform="translate(0.000000,282.000000) scale(0.100000,-0.100000)" fill="#000000" stroke="none">
      <path d="M1455 2538 c-53 -15 -137 -99 -153 -154 -9 -31 -12 -216 -12 -719 l0
-678 -51 -54 c-27 -29 -62 -79 -77 -110 -24 -52 -27 -70 -27 -163 0 -93 3
-111 27 -160 37 -78 136 -170 213 -200 163 -63 363 2 456 148 101 159 86 336
-42 477 l-59 65 0 673 c0 735 0 741 -57 804 -55 61 -146 90 -218 71z m132 -98
c66 -40 63 -9 63 -752 0 -392 4 -687 9 -706 6 -18 33 -59 62 -90 65 -71 91
-128 96 -212 9 -122 -59 -239 -170 -295 -43 -21 -65 -25 -137 -25 -74 0 -94 4
-136 26 -65 34 -109 78 -139 138 -21 42 -25 64 -25 135 0 106 25 165 102 247
l53 56 5 707 c4 557 8 711 18 729 34 59 136 81 199 42z"></path>
      <path d="M1478 1243 c-12 -14 -17 -49 -20 -143 -4 -116 -7 -129 -35 -185 -17
-33 -48 -76 -68 -95 -49 -46 -65 -86 -65 -160 0 -130 91 -220 220 -220 159 0
264 141 218 292 -7 23 -37 68 -74 109 -74 83 -84 115 -84 279 0 101 -2 110
-22 124 -29 21 -51 20 -70 -1z"></path>
      <path d="M3653 2524 c-52 -19 -118 -89 -132 -140 -7 -26 -11 -265 -11 -713 l0
-673 -51 -55 c-116 -128 -147 -274 -89 -426 28 -75 110 -164 184 -200 50 -25
65 -27 174 -27 115 0 123 1 178 31 69 36 95 59 135 116 109 158 93 350 -42
497 l-54 59 -5 696 c-5 688 -5 696 -26 736 -27 50 -48 69 -104 94 -52 24 -99
25 -157 5z m148 -87 c72 -48 69 -14 69 -769 0 -403 4 -687 10 -702 5 -13 32
-50 61 -82 127 -141 130 -300 7 -430 -70 -74 -123 -97 -223 -95 -100 2 -165
30 -229 102 -53 59 -76 121 -76 206 0 80 39 170 100 228 23 22 47 49 53 60 9
15 13 212 17 721 5 684 6 702 25 724 55 62 127 77 186 37z"></path>
      <path d="M3687 2142 c-15 -17 -17 -72 -17 -584 0 -651 4 -618 -91 -723 -66
-73 -74 -94 -73 -181 2 -127 93 -214 225 -214 59 0 73 4 115 33 138 92 146
256 19 377 -79 75 -75 40 -75 680 0 571 -2 601 -34 622 -20 13 -53 8 -69 -10z"></path>
      <path d="M2982 2521 c-9 -5 -12 -27 -10 -72 3 -58 5 -64 26 -67 22 -3 23 -2
20 69 -3 72 -11 87 -36 70z"></path>
      <path d="M797 2483 c-4 -3 -7 -21 -7 -40 0 -37 0 -37 -35 -21 -19 9 -28 9 -37
0 -9 -9 -6 -18 12 -37 13 -13 31 -27 42 -31 15 -4 18 -16 18 -65 0 -32 -2 -59
-5 -59 -3 0 -27 12 -55 28 -43 23 -50 31 -50 59 0 41 -9 63 -26 63 -8 0 -14
-10 -14 -24 0 -33 -16 -41 -45 -22 -13 9 -29 16 -35 16 -20 0 -9 -39 17 -58
l27 -19 -22 -12 c-25 -13 -30 -51 -7 -51 8 0 30 7 49 17 34 16 37 15 81 -8 25
-13 45 -28 45 -34 0 -6 -20 -21 -45 -34 -45 -24 -46 -24 -84 -6 -57 25 -84 2
-40 -34 l21 -17 -26 -17 c-27 -18 -36 -57 -13 -57 7 0 23 7 35 16 27 19 42 11
42 -22 0 -19 5 -25 18 -22 12 2 18 15 20 43 2 22 8 45 13 52 10 11 84 53 94
53 3 0 5 -26 5 -57 -1 -56 -2 -59 -40 -85 -64 -44 -48 -73 23 -43 14 6 17 2
17 -28 0 -20 5 -39 11 -43 15 -9 33 12 34 39 2 29 5 31 34 22 14 -4 27 -2 35
5 8 9 2 19 -25 43 -32 28 -38 39 -41 85 -6 61 2 65 62 27 34 -21 39 -30 42
-67 2 -35 7 -43 23 -43 14 0 21 8 23 27 3 27 4 28 33 13 50 -26 71 9 24 39
-30 20 -32 33 -5 41 11 4 20 15 20 27 0 22 -16 22 -76 -2 -27 -12 -35 -10 -78
15 l-48 28 23 18 c49 37 77 43 115 26 19 -10 41 -17 49 -17 22 0 18 38 -5 45
-22 7 -28 35 -7 35 8 0 21 8 31 19 15 16 15 20 1 31 -12 10 -20 9 -40 -4 -32
-21 -33 -21 -37 12 -2 19 -9 28 -25 30 -21 3 -23 -1 -23 -45 0 -47 -1 -49 -49
-75 -26 -15 -50 -26 -52 -24 -2 3 -3 31 -1 63 3 54 6 60 38 81 50 33 35 57
-26 41 -10 -3 -14 2 -12 13 5 33 -23 69 -41 51z"></path>
      <path d="M2753 2414 c-4 -11 10 -31 40 -62 39 -39 48 -44 61 -33 24 20 20 33
-22 74 -40 39 -69 47 -79 21z"></path>
      <path d="M3160 2385 c-37 -37 -41 -46 -30 -60 19 -23 32 -19 80 30 37 37 41
46 30 60 -19 23 -32 19 -80 -30z"></path>
      <path d="M2923 2323 c-56 -31 -77 -68 -77 -137 -1 -73 19 -108 75 -137 143
-73 285 76 206 216 -39 69 -134 96 -204 58z m123 -52 c59 -36 68 -108 19 -156
-33 -34 -70 -41 -112 -21 -76 36 -77 141 -3 178 44 23 58 22 96 -1z"></path>
      <path d="M2662 2188 c3 -21 8 -23 73 -23 63 0 70 2 70 20 0 18 -8 20 -73 23
-72 3 -73 2 -70 -20z"></path>
      <path d="M3192 2198 c-23 -23 7 -38 74 -38 65 0 78 7 68 34 -5 12 -21 16 -68
16 -34 0 -67 -5 -74 -12z"></path>
      <path d="M1809 2134 c-9 -11 -10 -20 -2 -32 8 -14 29 -17 124 -17 102 0 114 2
117 18 8 38 -15 47 -123 47 -81 0 -105 -3 -116 -16z"></path>
      <path d="M4030 2135 c-6 -8 -10 -22 -8 -32 3 -16 16 -18 123 -18 107 0 120 2
123 18 8 38 -15 47 -123 47 -77 0 -106 -4 -115 -15z"></path>
      <path d="M2791 2016 c-29 -29 -42 -50 -38 -60 11 -27 41 -18 82 24 32 33 37
44 29 57 -17 28 -28 25 -73 -21z"></path>
      <path d="M3123 2044 c-7 -19 73 -104 98 -104 34 0 27 28 -20 74 -49 49 -68 56
-78 30z"></path>
      <path d="M2982 1988 c-16 -16 -16 -135 1 -141 28 -10 37 6 37 68 0 66 -15 96
-38 73z"></path>
      <path d="M1810 1835 c-6 -8 -10 -22 -8 -32 3 -16 16 -18 123 -18 107 0 120 2
123 18 8 38 -15 47 -123 47 -77 0 -106 -4 -115 -15z"></path>
      <path d="M4024 1826 c-3 -14 -3 -30 1 -35 4 -7 51 -11 120 -11 106 0 114 1
120 20 13 41 -10 50 -126 50 -107 0 -109 0 -115 -24z"></path>
      <path d="M1812 1538 c-17 -17 -15 -32 6 -51 15 -13 39 -17 114 -17 103 0 122
9 116 52 -3 22 -7 23 -113 26 -77 2 -114 -1 -123 -10z"></path>
      <path d="M4033 1544 c-16 -7 -17 -46 -1 -62 8 -8 47 -12 108 -12 85 0 99 3
116 21 14 15 16 24 8 37 -9 14 -30 17 -115 19 -57 1 -110 -1 -116 -3z"></path>
      <path d="M1812 1238 c-17 -17 -15 -32 6 -51 15 -13 39 -17 114 -17 103 0 122
9 116 52 -3 22 -7 23 -113 26 -77 2 -114 -1 -123 -10z"></path>
      <path d="M4032 1238 c-18 -18 -15 -46 7 -58 11 -5 60 -10 109 -10 77 0 91 3
108 21 14 15 16 24 8 37 -9 14 -30 18 -115 20 -73 2 -108 -1 -117 -10z"></path>
    </g>
  </symbol>


</svg>